# xmcd
#
# Track frame offsets:
#	150
#	16425
#	31292
#	46583
#	63748
#	76776
#	95084
#	110987
#	127392
#	142267
#
# Disc length: 2156 seconds
#
# Revision: 1
# Processed by: cddbd v1.5.2PL0 Copyright (c) Steve Scherf et al.
# Submitted via: audiograbber 1.83.01
#
DISCID=93086a0a
DTITLE=Tom Shadow - Cowboys and movies
DYEAR=1900
DGENRE=Country
TTITLE0=Coffee
TTITLE1=Cowboys and movies
TTITLE2=Countryman
TTITLE3=If you ever look back
TTITLE4=Like a day in spring
TTITLE5=Road Cowboy
TTITLE6=Something to believe
TTITLE7=The last words
TTITLE8=Worst day in my life
TTITLE9=Little big hometown
EXTD=
EXTT0=
EXTT1=
EXTT2=
EXTT3=
EXTT4=
EXTT5=
EXTT6=
EXTT7=
EXTT8=
EXTT9=
PLAYORDER=
